<?xml version="1.0" encoding="UTF-8"?>
<!-- Generator: Adobe Illustrator 15.0.2, SVG Export Plug-In . SVG Version: 6.00 Build 0)  -->
<!DOCTYPE svg PUBLIC "-//W3C//DTD SVG 1.1//EN" "http://www.w3.org/Graphics/SVG/1.1/DTD/svg11.dtd">
<svg xmlns="http://www.w3.org/2000/svg" xmlns:xlink="http://www.w3.org/1999/xlink" version="1.1" id="Layer_1" x="0px" y="0px" width="512px" height="523.038px" viewBox="0 0 512 523.038" enable-background="new 0 0 512 523.038" xml:space="preserve">
<g>
	<path d="M300.718,0C183.998,0,89.437,94.604,89.437,211.278c0,39.905,11.067,77.215,30.291,109.054L17.293,422.764l0.354,0.361   C6.715,433.596,0,448.451,0,465.241c-0.006,32.432,25.836,57.797,58.239,57.797c16.555-0.013,31.354-6.628,41.92-17.408   l0.258,0.258l105.69-105.704c28.47,14.288,60.586,22.374,94.61,22.374C417.451,422.558,512,327.966,512,211.278   C512,94.604,417.451,0,300.718,0z M302.001,339.485c-72.956,0-132.056-59.129-132.056-132.056c0-72.918,59.1-132.05,132.056-132.05   c72.959,0,132.046,59.126,132.046,132.05C434.047,280.356,374.96,339.485,302.001,339.485z" fill="#000000"/>
</g>
</svg>
